<svg width="86" height="29" viewBox="0 0 86 29" fill="none" xmlns="http://www.w3.org/2000/svg">
<g clip-path="url(#clip0_315_28013)">
<path d="M21.951 8.6046C20.8379 9.72088 19.3368 9.98799 17.9832 10.5549C17.5351 10.7427 17.0787 10.927 16.6707 11.1813C16.5092 11.2816 16.4184 11.5604 16.3771 11.7726C16.2345 12.518 16.0965 13.2505 15.5541 13.8466C15.1532 14.2875 15.3595 14.6817 15.7168 15.062C17.2898 16.7347 18.8534 18.4143 20.417 20.0952C22.4428 22.2718 24.4638 24.453 26.4861 26.6319C26.5521 26.7031 26.6158 26.7777 26.6712 26.857C26.8304 27.0868 27.1335 27.3294 26.7797 27.5966C26.4826 27.8205 26.1748 27.7797 25.8977 27.4776C24.9025 26.3916 23.8896 25.322 22.8885 24.2407C20.3945 21.5427 17.9042 18.8424 15.4102 16.1445C15.3053 16.0313 15.1956 15.9158 15.0683 15.833C14.731 15.6137 14.507 15.679 14.494 16.1118C14.474 16.751 14.4551 17.3914 14.4563 18.0318C14.461 21.2511 14.4728 24.4705 14.4775 27.6899C14.4775 27.9791 14.494 28.2848 14.4079 28.553C14.3513 28.7303 14.1013 28.9939 13.9834 28.9718C13.7889 28.9368 13.5636 28.7327 13.4776 28.5437C13.3797 28.3279 13.4009 28.0515 13.4009 27.8007C13.4021 24.0191 13.4115 20.2363 13.4104 16.4547C13.4104 16.1176 13.3443 15.7794 13.3101 15.4423C13.2512 15.4131 13.1922 15.3851 13.1344 15.3559C12.7312 15.7245 12.2984 16.0663 11.9281 16.4652C10.0108 18.5333 8.11709 20.6236 6.19977 22.6917C4.75883 24.2465 3.29666 25.7827 1.8345 27.3178C1.693 27.4659 1.49844 27.5954 1.30388 27.6525C1.16945 27.691 0.954843 27.6315 0.847539 27.5371C0.76264 27.4624 0.729623 27.2431 0.777969 27.13C0.865227 26.9224 1.00673 26.7252 1.16356 26.5596C3.37331 24.2104 5.5925 21.8693 7.80461 19.5213C9.15004 18.0936 10.4907 16.6624 11.8244 15.2241C12.342 14.6654 12.3291 14.5488 11.8244 14.0297C11.085 13.2704 10.9247 13.2832 9.81155 13.7906C8.83874 14.235 7.83409 14.6211 6.82119 14.9675C6.62544 15.034 6.30471 14.8299 6.07949 14.6899C5.95214 14.6106 5.9038 14.4088 5.73282 14.2268C5.58424 14.9617 5.16918 15.4353 4.50295 15.6884C3.67046 16.0045 3.0797 15.9158 2.57619 15.4329C2.63162 15.6184 2.69411 15.8015 2.74128 15.9893C2.7967 16.2109 2.91579 16.4536 2.86627 16.653C2.81085 16.877 2.63279 17.1756 2.44295 17.2339C2.259 17.2911 1.8628 17.1453 1.78262 16.982C1.41236 16.2214 1.1046 15.4306 0.805089 14.6398C0.519732 13.8839 0.25324 13.1187 0.0197659 12.3454C-0.0415506 12.1424 0.0504242 11.894 0.0728283 11.6665C0.340499 11.698 0.685994 11.6385 0.858152 11.782C1.11285 11.9931 1.24963 12.3454 1.42415 12.6451C1.50433 12.7828 1.55386 12.9379 1.73545 13.1152C1.72248 12.1587 1.90407 11.4006 2.9382 11.0868C4.15745 10.717 4.29306 11.7586 4.90622 12.3372C4.84844 12.0806 4.84491 11.7971 4.72463 11.572C4.23056 10.6447 4.46993 9.79553 5.46043 9.41644C6.71152 8.93703 7.87418 8.236 9.084 7.64695C10.2585 7.07423 11.4494 6.5365 12.6203 5.95912C14.2263 5.16827 15.8217 4.3541 17.4219 3.55042C17.8558 3.3323 18.2709 3.02552 18.7307 2.92987C19.0173 2.87039 19.384 3.10484 19.6894 3.25764C19.7932 3.30897 19.8191 3.51309 19.8804 3.6484C19.9441 3.63557 20.0078 3.6239 20.0715 3.61107C20.0172 3.3253 19.9948 3.02785 19.9005 2.75607C19.7212 2.24167 19.9052 1.51498 20.3922 1.28053C21.2836 0.850113 22.2046 0.476853 23.1113 0.077931C23.5276 -0.1052 23.7693 0.0336063 23.9144 0.451191C24.2457 1.40067 24.5829 2.34665 24.9438 3.28564C25.3659 4.38442 25.7892 5.48437 26.2574 6.5645C26.6665 7.51048 26.5698 7.87557 25.5793 8.39114C25.0782 8.65242 24.5523 8.87171 24.0217 9.07001C22.9946 9.45493 22.7281 9.38845 21.951 8.60343V8.6046ZM19.0798 4.91632C19.0904 4.3226 18.8947 4.11614 18.469 4.25611C17.956 4.42525 17.4773 4.69936 16.9844 4.93032C15.8052 5.48437 14.619 6.0256 13.4493 6.59832C11.4058 7.59913 9.37172 8.61743 7.33766 9.6369C6.81647 9.89818 6.29882 10.1758 5.80828 10.4872C5.68919 10.563 5.67976 10.8068 5.6208 10.9736C5.78706 11.0238 5.98398 11.1568 6.11487 11.1101C6.56885 10.948 6.99924 10.7217 7.44025 10.5246C8.34585 10.1186 9.25616 9.72321 10.157 9.30913C11.8751 8.52178 13.5896 7.7286 15.3029 6.93076C16.4668 6.38836 17.6294 5.84364 18.7791 5.27442C18.9395 5.1951 19.0303 4.97697 19.0798 4.91515V4.91632ZM20.7271 2.30583C20.7259 2.82956 20.9122 3.00803 21.3131 2.87622C21.9935 2.65226 22.6703 2.40381 23.3106 2.08887C23.5087 1.99089 23.5807 1.64446 23.7104 1.41117C23.4321 1.31319 23.1137 1.07757 22.8849 1.14406C22.2223 1.33768 21.5879 1.63513 20.9617 1.93374C20.8238 2.00022 20.7683 2.23468 20.7259 2.30583H20.7271ZM2.74953 12.7909C3.10092 12.6825 3.38628 12.6428 3.61504 12.5063C3.74003 12.4317 3.83083 12.1914 3.8155 12.0374C3.80606 11.9418 3.55136 11.782 3.43581 11.803C3.15634 11.8543 2.87924 11.9686 2.63044 12.1097C2.5078 12.1797 2.35569 12.4037 2.38989 12.49C2.44649 12.6288 2.64577 12.7116 2.74953 12.7909Z" fill="black"/>
<path d="M44.8636 17.8092C44.8636 20.9691 44.8624 24.129 44.8636 27.2889C44.8636 28.9557 44.8636 28.9791 43.1998 28.9837C38.548 28.9966 33.8974 28.9919 29.2456 28.9931C29.1088 28.9931 28.9237 29.0257 28.8458 28.9546C28.676 28.7971 28.5605 28.5813 28.4225 28.3889C28.5864 28.2757 28.7397 28.0926 28.9178 28.0657C29.2632 28.0121 29.6217 28.0448 29.9755 28.0448C31.7218 28.0448 33.4693 28.0494 35.2157 28.0413C36.1802 28.0366 36.6448 27.3542 36.2026 26.5062C36.0906 26.2916 35.6673 26.1388 35.3796 26.1271C34.2629 26.0793 33.1427 26.0968 32.0237 26.0945C31.1405 26.0933 30.2573 26.0968 29.3741 26.1003C28.4201 26.1038 28.3329 26.0396 28.3317 25.0727C28.3246 21.8533 28.3341 18.6339 28.3352 15.4157C28.3364 12.8764 28.3376 10.337 28.3352 7.79771C28.3352 6.96953 28.4992 6.79224 29.321 6.79224C34.1886 6.79224 39.0562 6.79224 43.9226 6.7934C44.669 6.7934 44.7775 6.89605 44.7787 7.63091C44.7811 11.0241 44.7799 14.4172 44.7799 17.8104C44.807 17.8104 44.8341 17.8104 44.8624 17.8104L44.8636 17.8092ZM29.5121 17.3135C29.5121 17.3135 29.5097 17.3135 29.5085 17.3135C29.5085 19.5822 29.5014 21.8521 29.5121 24.1208C29.5156 24.921 29.6547 25.0447 30.4342 25.0447C31.4152 25.0447 32.3975 25.061 33.3774 25.0248C34.7475 24.9747 35.7746 23.9902 35.8925 22.6488C35.9279 22.2441 35.9385 21.8358 35.9397 21.4287C35.9432 18.6164 35.955 15.8041 35.9279 12.9919C35.922 12.3818 35.8831 11.7274 35.6555 11.1757C35.1944 10.0571 34.1167 9.81215 33.0354 9.72233C32.276 9.65934 31.5048 9.72816 30.7407 9.71067C29.5875 9.68617 29.5144 9.74449 29.5132 10.9133C29.5109 13.0467 29.5132 15.1801 29.5132 17.3135H29.5121ZM43.708 21.8533C43.708 21.8533 43.7139 21.8533 43.7163 21.8533C43.7163 20.0138 43.708 18.1732 43.721 16.3337C43.7245 15.7715 43.4227 15.572 42.9192 15.565C41.9463 15.551 40.9735 15.5394 40.0007 15.5382C38.7744 15.5382 38.0527 16.1646 38.028 17.3695C37.9879 19.3058 37.9926 21.2444 38.028 23.1807C38.0457 24.199 38.9029 24.9922 39.9253 25.0283C40.3757 25.0447 40.8273 25.0202 41.2778 25.0213C42.0619 25.0213 42.1586 25.1182 42.1798 25.8857C42.2105 27.007 41.6563 27.5354 40.5172 27.4709C40.0526 27.4452 39.713 27.3391 39.5668 26.8083C39.417 26.2636 38.647 26.119 38.3829 26.5972C38.206 26.9191 38.199 27.4265 38.3157 27.787C38.4501 28.1987 38.5244 28.7936 39.1965 28.7948C40.3533 28.7971 41.51 28.8018 42.6656 28.7866C42.8248 28.7843 43.05 28.719 43.1302 28.6046C43.4344 28.1661 43.734 27.7391 43.721 27.1396C43.6844 25.3783 43.708 23.6146 43.708 21.8521V21.8533Z" fill="black"/>
<path d="M65.5695 28.4005C60.9967 28.4005 56.4251 28.4051 51.8523 28.3981C49.9691 28.3946 48.086 28.3841 46.2041 28.3375C45.2619 28.3141 44.9482 27.8464 45.2442 26.9529C45.302 26.7791 45.6027 26.5866 45.8031 26.5738C46.7807 26.5097 47.7617 26.4828 48.7416 26.4817C54.7471 26.4782 60.7514 26.4887 66.7569 26.4898C72.6244 26.4898 78.4931 26.4852 84.3606 26.484C84.6354 26.484 84.9101 26.5178 85.1837 26.5167C85.7697 26.5143 86.0268 26.7581 85.9961 27.3693C85.9561 28.1683 85.8157 28.3783 84.9927 28.3865C83.2652 28.4051 81.5389 28.3911 79.8114 28.3911C75.0641 28.3911 70.3168 28.3911 65.5695 28.3911C65.5695 28.3946 65.5695 28.3981 65.5695 28.4016V28.4005Z" fill="black"/>
<path d="M49.8771 19.9472C50.0469 19.406 50.2804 18.8764 50.3747 18.3224C50.8063 15.804 51.2013 13.2798 51.6034 10.758C51.6742 10.3159 51.9383 10.1456 52.3675 10.1106C53.7283 9.99982 53.891 10.1211 53.667 11.4299C53.3993 12.9929 53.0432 14.5419 52.7319 16.098C52.5491 17.0101 52.3652 17.9211 52.2013 18.8368C51.9418 20.2866 51.7166 21.7412 51.4407 23.1876C51.3287 23.7743 51.1341 24.347 50.9537 24.9186C50.9113 25.0539 50.8051 25.2067 50.6849 25.2767C49.7628 25.8132 48.6473 25.335 48.4598 24.3085C48.2228 23.0126 48.053 21.705 47.803 20.4126C47.566 19.1785 47.2417 17.9608 46.9976 16.7278C46.7535 15.4937 46.566 14.248 46.3432 13.0092C46.2229 12.3432 46.0731 11.683 45.9529 11.017C45.8267 10.3206 45.9776 10.1386 46.6828 10.0908C47.8218 10.0126 48.0683 10.2378 48.2581 11.4474C48.6826 14.1442 49.1189 16.8386 49.5529 19.5331C49.5729 19.6603 49.6213 19.7827 49.6554 19.9075C49.7297 19.9204 49.804 19.9332 49.8783 19.946L49.8771 19.9472Z" fill="black"/>
<path d="M78.6763 20.4185C78.6763 19.2369 78.6598 18.0565 78.6822 16.8749C78.6975 16.0829 79.063 15.6653 79.859 15.6373C81.2292 15.5906 82.6029 15.5871 83.9719 15.6326C84.7631 15.6583 85.0367 15.9767 85.0685 16.7839C85.1098 17.7894 85.1157 18.7972 85.1063 19.805C85.0992 20.4827 84.6935 20.8583 83.9837 20.8839C83.2007 20.9119 82.4154 20.9364 81.6324 20.9283C81.0381 20.9224 80.8294 21.2117 80.8589 21.7541C80.8778 22.1017 80.9014 22.4516 80.8848 22.7992C80.8636 23.2681 81.0912 23.4804 81.5405 23.4979C81.7952 23.5084 82.0499 23.5061 82.3046 23.5084C82.6866 23.5131 82.8611 23.3323 82.9012 22.9497C82.9932 22.062 83.1465 21.9792 84.3964 22.0445C84.94 22.0725 85.1216 22.328 85.1228 23.0722C85.1228 23.3428 85.1063 23.6146 85.1051 23.8852C85.0992 24.844 84.7832 25.2394 83.67 25.3491C82.5038 25.4622 81.3188 25.4144 80.1431 25.3922C79.2753 25.3759 78.7046 24.7658 78.6963 23.9038C78.6845 22.7421 78.6928 21.5791 78.6928 20.4174H78.6774L78.6763 20.4185ZM82.8989 18.2956C82.8965 18.2361 82.9248 17.9935 82.8623 17.7765C82.8175 17.6214 82.663 17.3975 82.538 17.3835C82.1147 17.338 81.6784 17.3473 81.2539 17.394C81.1301 17.4068 80.9485 17.6004 80.9308 17.7299C80.8742 18.1498 80.8483 18.5802 80.8813 19.0001C80.8955 19.1774 81.0476 19.4177 81.2056 19.4982C82.1324 19.973 82.9189 19.483 82.8989 18.2956Z" fill="black"/>
<path d="M55.1695 20.3998C55.1695 19.2182 55.1566 18.0354 55.1743 16.8538C55.1872 16.0443 55.4856 15.6617 56.2815 15.6349C57.6894 15.587 59.1032 15.594 60.51 15.6582C61.2835 15.6932 61.5323 16.0163 61.5524 16.7955C61.5783 17.8033 61.5748 18.8111 61.5547 19.8189C61.5406 20.5082 61.188 20.8558 60.4899 20.8815C59.7848 20.9083 59.0773 20.8932 58.371 20.8978C57.4406 20.9037 57.3357 21.0098 57.3357 21.9465C57.3357 22.0818 57.338 22.2182 57.3427 22.3535C57.3793 23.4022 57.6022 23.5865 58.6658 23.5282C59.1433 23.5025 59.3568 23.3194 59.3957 22.8271C59.4499 22.1459 59.7341 22.0001 60.6857 22.0421C61.3613 22.0724 61.5323 22.2392 61.563 22.9263C61.5771 23.2354 61.5759 23.5468 61.5689 23.8571C61.5488 24.8684 61.1585 25.3186 60.1173 25.3665C58.9228 25.4213 57.7236 25.4213 56.5291 25.3875C55.7296 25.3653 55.1884 24.7891 55.1743 24.0041C55.153 22.8026 55.1684 21.6012 55.1695 20.3998ZM57.2508 18.3585C57.2826 18.3702 57.3144 18.3818 57.3475 18.3935C57.3475 18.5288 57.3439 18.6641 57.3475 18.7994C57.3663 19.4025 57.588 19.6369 58.1446 19.6462C59.0301 19.6614 59.3355 19.4666 59.3685 18.8344C59.3851 18.5066 59.3827 18.1742 59.3438 17.8499C59.3249 17.696 59.2117 17.4358 59.1221 17.4265C58.6245 17.381 58.0915 17.3029 57.6316 17.437C57.4312 17.4965 57.3734 18.0354 57.2519 18.3562L57.2508 18.3585Z" fill="black"/>
<path d="M73.8685 15.53C74.5335 15.5592 75.1998 15.5709 75.8636 15.6222C76.6478 15.6828 77.0004 16.0654 77.057 16.8598C77.0699 17.0336 77.0841 17.2074 77.0912 17.3823C77.1301 18.424 76.8954 18.6456 75.8554 18.6759C75.3142 18.6922 75.0276 18.4706 74.9887 17.9632C74.9533 17.4885 74.6998 17.3263 74.2576 17.3473C74.0819 17.3555 73.9051 17.3427 73.7282 17.3473C73.4204 17.3555 73.0454 17.2832 72.9818 17.7159C72.9228 18.1125 72.8697 18.5254 73.3202 18.7949C74.1869 19.3116 75.0264 19.8738 75.9037 20.3719C76.6726 20.8093 77.2067 21.3284 77.0994 22.3012C77.0381 22.8564 77.1065 23.4245 77.0794 23.9855C77.0393 24.816 76.4969 25.3549 75.6514 25.3771C74.5536 25.4063 73.4546 25.4261 72.358 25.3864C71.463 25.3549 70.7378 24.9793 70.8428 23.8292C70.8616 23.6181 70.838 23.4035 70.838 23.19C70.8392 22.1274 71.4807 21.6842 72.4794 22.1204C72.7023 22.2172 72.9016 22.5823 72.9322 22.8436C72.9877 23.3137 73.2105 23.4933 73.6456 23.5096C73.8025 23.5155 73.9593 23.533 74.1149 23.5236C74.4545 23.5015 74.8838 23.5936 74.9734 23.1189C75.0547 22.6896 75.0182 22.2534 74.5843 21.9851C73.7258 21.4544 72.8733 20.9108 71.9924 20.4186C71.2578 20.0068 70.7508 19.5053 70.8156 18.5954C70.8593 17.9784 70.8263 17.3555 70.8628 16.7373C70.9112 15.9278 71.2307 15.6338 72.0431 15.6035C72.3568 15.5919 72.6705 15.5942 72.9841 15.5919C73.2777 15.5907 73.5713 15.5919 73.8661 15.5919C73.8661 15.572 73.8661 15.551 73.8673 15.5312L73.8685 15.53Z" fill="black"/>
<path d="M63.203 20.345C63.203 19.0468 63.1948 17.7486 63.2066 16.4503C63.2125 15.8099 63.4424 15.5836 64.0921 15.5533C64.4046 15.5382 64.7489 15.4927 65.026 15.5965C65.9021 15.9254 66.7653 15.7516 67.6378 15.6443C67.8312 15.6198 68.0293 15.6011 68.2239 15.6105C69.0375 15.6455 69.3807 15.9207 69.4467 16.7209C69.508 17.4511 69.4891 18.1895 69.4703 18.922C69.4585 19.3967 69.1908 19.6743 68.6838 19.6732C68.4291 19.6732 68.1732 19.679 67.9209 19.6545C67.5117 19.6137 67.2865 19.3734 67.2582 18.9686C67.2405 18.7179 67.244 18.4647 67.2358 18.2128C67.2098 17.415 66.6214 17.0265 65.9116 17.4021C65.7229 17.5024 65.5955 17.878 65.5908 18.1311C65.5566 19.6428 65.5672 21.1546 65.5613 22.6674C65.559 23.3066 65.5613 23.947 65.5519 24.5862C65.5437 25.1333 65.2453 25.3806 64.6994 25.4051C63.4518 25.461 63.2136 25.2593 63.1983 24.0077C63.183 22.7876 63.1948 21.5675 63.1948 20.3462C63.1983 20.3462 63.2007 20.3462 63.2042 20.3462L63.203 20.345Z" fill="black"/>
<path d="M19.0801 4.91646C19.0306 4.97828 18.9409 5.1964 18.7794 5.27572C17.6285 5.84377 16.4659 6.38967 15.3032 6.93206C13.5911 7.72991 11.8754 8.52308 10.1573 9.31043C9.25528 9.72335 8.34496 10.1199 7.44054 10.5259C6.99954 10.7242 6.56914 10.9504 6.11516 11.1114C5.98428 11.1581 5.78854 11.0251 5.62109 10.9749C5.68123 10.8081 5.68949 10.5644 5.80858 10.4885C6.30029 10.1759 6.81677 9.89948 7.33796 9.6382C9.37202 8.61873 11.4061 7.60043 13.4496 6.59963C14.6193 6.02691 15.8055 5.48568 16.9847 4.93162C17.4764 4.70066 17.9552 4.42655 18.4693 4.25742C18.8949 4.11744 19.0907 4.3239 19.0801 4.91762V4.91646Z" fill="white"/>
<path d="M20.7271 2.30721C20.7695 2.23605 20.8249 2.0016 20.9629 1.93511C21.5878 1.6365 22.2234 1.33906 22.8861 1.14543C23.1149 1.07895 23.4332 1.31457 23.7115 1.41255C23.5818 1.64584 23.5099 1.99227 23.3118 2.09025C22.6715 2.40519 21.9947 2.65481 21.3143 2.8776C20.9134 3.0094 20.7271 2.83094 20.7282 2.30721H20.7271Z" fill="white"/>
<path d="M2.74979 12.7911C2.64602 12.7118 2.44674 12.629 2.39014 12.4902C2.35595 12.405 2.50806 12.1799 2.63069 12.1099C2.87832 11.9688 3.1566 11.8545 3.43606 11.8031C3.5528 11.7822 3.80632 11.942 3.81575 12.0376C3.83108 12.1916 3.74029 12.4319 3.61529 12.5065C3.38772 12.6418 3.10236 12.6826 2.74979 12.7911Z" fill="white"/>
<path d="M29.5119 17.3134C29.5119 15.18 29.5096 13.0466 29.5119 10.9132C29.5131 9.74441 29.5874 9.68492 30.7394 9.71058C31.5047 9.72691 32.2747 9.65809 33.0341 9.72224C34.1154 9.81206 35.1931 10.0582 35.6542 11.1756C35.8818 11.7274 35.9207 12.3829 35.9266 12.9918C35.9537 15.8041 35.9419 18.6163 35.9384 21.4286C35.9384 21.8357 35.9266 22.244 35.8912 22.6487C35.7745 23.9901 34.7474 24.9746 33.376 25.0248C32.3961 25.0609 31.4139 25.0446 30.4328 25.0446C29.6534 25.0446 29.5154 24.9209 29.5107 24.1208C29.5001 21.852 29.5072 19.5822 29.5072 17.3134C29.5072 17.3134 29.5096 17.3134 29.5107 17.3134H29.5119ZM34.3394 17.4709C34.3394 17.4709 34.3488 17.4709 34.3536 17.4709C34.3536 15.902 34.3583 14.3332 34.3512 12.7643C34.3488 12.2371 34.363 11.6165 33.8347 11.3634C33.3006 11.1068 32.6685 10.9703 32.0707 10.9412C31.0967 10.8933 31.0543 10.9878 31.0543 11.9676C31.0531 15.4343 31.0495 18.9021 31.0531 22.3688C31.0531 23.926 31.0649 23.9306 32.6202 23.8735C33.7416 23.8327 34.3229 23.2774 34.3359 22.1763C34.3536 20.6075 34.3406 19.0386 34.3406 17.4697L34.3394 17.4709Z" fill="white"/>
<path d="M43.707 21.8532C43.707 23.6157 43.6834 25.3794 43.72 27.1407C43.7329 27.7403 43.4334 28.1672 43.1292 28.6058C43.0502 28.7201 42.825 28.7854 42.6646 28.7877C41.5079 28.8029 40.3511 28.7982 39.1955 28.7959C38.5234 28.7947 38.4491 28.1998 38.3147 27.7881C38.1968 27.4277 38.2038 26.9202 38.3819 26.5983C38.646 26.1201 39.416 26.2647 39.5658 26.8094C39.7108 27.3402 40.0516 27.4463 40.5162 27.472C41.6552 27.5342 42.2095 27.0058 42.1788 25.8868C42.1576 25.1193 42.0609 25.0236 41.2767 25.0225C40.8263 25.0225 40.3747 25.0458 39.9242 25.0295C38.9019 24.9921 38.0446 24.2001 38.027 23.1818C37.9928 21.2455 37.988 19.3069 38.027 17.3706C38.0517 16.1657 38.7734 15.5381 39.9997 15.5393C40.9725 15.5393 41.9453 15.551 42.9181 15.5661C43.4216 15.5731 43.7247 15.7726 43.72 16.3348C43.707 18.1743 43.7152 20.0149 43.7152 21.8544C43.7129 21.8544 43.7094 21.8544 43.707 21.8544V21.8532ZM42.1717 20.4349H42.1764C42.1764 19.7175 42.1776 18.999 42.1764 18.2816C42.1741 16.9787 42.022 16.8247 40.6942 16.7746C40.6353 16.7722 40.5763 16.7676 40.5174 16.7676C39.9289 16.7722 39.5846 17.0079 39.5752 17.5782C39.5422 19.3617 39.5422 21.1464 39.5787 22.9299C39.5893 23.4909 40.0174 23.828 40.5905 23.877C40.844 23.8992 41.1022 23.8735 41.3557 23.898C41.95 23.9552 42.1764 23.6589 42.1741 23.113C42.1705 22.2207 42.1741 21.3283 42.1741 20.436L42.1717 20.4349Z" fill="white"/>
<path d="M34.3393 17.471C34.3393 19.0398 34.3523 20.6087 34.3346 22.1776C34.3216 23.2787 33.7403 23.8339 32.6189 23.8747C31.0636 23.9319 31.053 23.9261 31.0518 22.37C31.0494 18.9034 31.0518 15.4356 31.053 11.9689C31.053 10.9891 31.0954 10.8946 32.0694 10.9424C32.6661 10.9716 33.2993 11.1081 33.8334 11.3647C34.3605 11.6178 34.3464 12.2383 34.3499 12.7656C34.3582 14.3344 34.3523 15.9033 34.3523 17.4722C34.3476 17.4722 34.3428 17.4722 34.3381 17.4722L34.3393 17.471Z" fill="black"/>
<path d="M42.1716 20.4348C42.1716 21.3271 42.1693 22.2195 42.1716 23.1118C42.174 23.6577 41.9476 23.954 41.3533 23.8968C41.0998 23.8723 40.8427 23.8968 40.588 23.8758C40.015 23.8268 39.5869 23.4897 39.5763 22.9287C39.5409 21.1452 39.5409 19.3605 39.5728 17.577C39.5834 17.0055 39.9265 16.771 40.5149 16.7664C40.5739 16.7664 40.6328 16.771 40.6918 16.7734C42.0207 16.8247 42.1716 16.9775 42.174 18.2804C42.1752 18.9978 42.174 19.7163 42.174 20.4336H42.1693L42.1716 20.4348Z" fill="black"/>
</g>
<defs>
<clipPath id="clip0_315_28013">
<rect width="86" height="29" fill="white"/>
</clipPath>
</defs>
</svg>
