<svg xmlns="http://www.w3.org/2000/svg" width="165.269" height="31.35" viewBox="0 0 165.269 31.35">
  <g id="metamask" transform="translate(-759.875 -524.875)">
    <path id="Path_1" data-name="Path 1" d="M145.4,15.8c-.9-.6-1.9-1-2.8-1.5a8.712,8.712,0,0,1-1.8-1.1,1.8,1.8,0,0,1,.2-2.8,2.439,2.439,0,0,1,3.8,1.4.1.1,0,0,0,.1.1h2c.1,0,.1,0,.1-.1a3.783,3.783,0,0,0-1.5-2.9,4.779,4.779,0,0,0-2.8-1c-5.3,0-5.8,5.6-2.9,7.3.3.2,3.1,1.6,4.1,2.2a2.039,2.039,0,0,1,.9,2.6,2.506,2.506,0,0,1-2.4,1.3,2.553,2.553,0,0,1-2.3-1.6,1.486,1.486,0,0,1-.1-.6.1.1,0,0,0-.1-.1h-2.2a.1.1,0,0,0-.1.1,3.36,3.36,0,0,0,1.5,3.2,4.979,4.979,0,0,0,3.2,1.1c3,0,4.5-1.7,4.8-3.4A3.906,3.906,0,0,0,145.4,15.8Z" transform="translate(759.9 524.9)" fill="#fff"/>
    <path id="Path_2" data-name="Path 2" d="M51.2,8.2H49.1a.1.1,0,0,0-.1.1l-1.8,5.9c0,.1-.1.1-.2,0L45.2,8.3a.1.1,0,0,0-.1-.1H42a.1.1,0,0,0-.1.1v15a.1.1,0,0,0,.1.1h2.2a.1.1,0,0,0,.1-.1V11.8c0-.1.1-.1.2,0l1.8,5.9.1.4a.1.1,0,0,0,.1.1h1.7a.1.1,0,0,0,.1-.1l.1-.4,1.8-5.9c0-.1.2-.1.2,0V23.2a.1.1,0,0,0,.1.1h2.2a.1.1,0,0,0,.1-.1V8.2a.1.1,0,0,0-.1-.1H51.2Z" transform="translate(759.9 524.9)" fill="#fff"/>
    <path id="Path_3" data-name="Path 3" d="M112.2,8.2h0l-1.9,5.9c0,.1-.1.1-.2,0l-1.8-5.9a.1.1,0,0,0-.1-.1H105a.1.1,0,0,0-.1.1v15a.1.1,0,0,0,.1.1h2.2a.1.1,0,0,0,.1-.1V11.8c0-.1.1-.1.2,0l1.8,5.9.1.4a.1.1,0,0,0,.1.1h1.7a.1.1,0,0,0,.1-.1l.1-.4,1.8-5.9c0-.1.2-.1.2,0V23.2a.1.1,0,0,0,.1.1h2.2a.1.1,0,0,0,.1-.1V8.2a.1.1,0,0,0-.1-.1h-3.5Z" transform="translate(759.9 524.9)" fill="#fff"/>
    <path id="Path_4" data-name="Path 4" d="M84.2,8.2H74a.1.1,0,0,0-.1.1v1.9a.1.1,0,0,0,.1.1h4v13a.1.1,0,0,0,.1.1h2.2a.1.1,0,0,0,.1-.1v-13h4a.1.1,0,0,0,.1-.1l-.3-2Z" transform="translate(759.9 524.9)" fill="#fff"/>
    <path id="Path_5" data-name="Path 5" d="M97,23.3h2a.1.1,0,0,0,.1-.1L95,8.2a.1.1,0,0,0-.1-.1H92a.1.1,0,0,0-.1.1l-4.1,15c0,.1,0,.1.1.1h2a.1.1,0,0,0,.1-.1l1.2-4.4a.1.1,0,0,1,.1-.1h4.4a.1.1,0,0,1,.1.1L97,23.3Zm-5.2-6.6,1.6-5.8c0-.1.1-.1.2,0l1.6,5.8c0,.1,0,.1-.1.1H91.9A.1.1,0,0,1,91.8,16.7Z" transform="translate(759.9 524.9)" fill="#fff"/>
    <path id="Path_6" data-name="Path 6" d="M130.6,23.3h2a.1.1,0,0,0,.1-.1l-4.1-15a.1.1,0,0,0-.1-.1h-2.9a.1.1,0,0,0-.1.1l-4.1,15c0,.1,0,.1.1.1h2a.1.1,0,0,0,.1-.1l1.2-4.4a.1.1,0,0,1,.1-.1h4.4a.1.1,0,0,1,.1.1l1.2,4.5Zm-5.1-6.6,1.6-5.8c0-.1.1-.1.2,0l1.6,5.8c0,.1,0,.1-.1.1h-3.2A.1.1,0,0,1,125.5,16.7Z" transform="translate(759.9 524.9)" fill="#fff"/>
    <path id="Path_7" data-name="Path 7" d="M61.3,21.1V16.5a.1.1,0,0,1,.1-.1h5.8a.1.1,0,0,0,.1-.1V14.4a.1.1,0,0,0-.1-.1H61.4a.1.1,0,0,1-.1-.1v-4a.1.1,0,0,1,.1-.1H68a.1.1,0,0,0,.1-.1V8.3a.1.1,0,0,0-.1-.1H59.1a.1.1,0,0,0-.1.1V23.1a.1.1,0,0,0,.1.1h9.1a.1.1,0,0,0,.1-.1v-2a.1.1,0,0,0-.1-.1l-6.9.1Z" transform="translate(759.9 524.9)" fill="#fff"/>
    <path id="Path_8" data-name="Path 8" d="M165.2,23.2l-7.5-7.7v-.1l6.8-7c.1-.1,0-.1-.1-.1h-2.9l-5.7,5.9c-.1.1-.1,0-.1-.1V8.3a.1.1,0,0,0-.1-.1h-2.2a.1.1,0,0,0-.1.1v15a.1.1,0,0,0,.1.1h2.2a.1.1,0,0,0,.1-.1V16.7a.1.1,0,0,1,.1-.1l6.5,6.7h2.9S165.3,23.2,165.2,23.2Z" transform="translate(759.9 524.9)" fill="#fff"/>
    <path id="Path_9" data-name="Path 9" d="M32.1.1,18.9,9.8l2.4-5.7Z" transform="translate(759.9 524.9)" fill="#e17726" stroke="#e17726" stroke-linecap="round" stroke-linejoin="round" stroke-width="0.25"/>
    <path id="Path_10" data-name="Path 10" d="M1.8.1l13,9.8L12.5,4.1Z" transform="translate(759.9 524.9)" fill="#e27625" stroke="#e27625" stroke-linecap="round" stroke-linejoin="round" stroke-width="0.25"/>
    <path id="Path_11" data-name="Path 11" d="M27.4,22.7,23.9,28l7.5,2.1,2.1-7.3Z" transform="translate(759.9 524.9)" fill="#e27625" stroke="#e27625" stroke-linecap="round" stroke-linejoin="round" stroke-width="0.25"/>
    <path id="Path_12" data-name="Path 12" d="M.4,22.8l2.1,7.3L10,28,6.5,22.7Z" transform="translate(759.9 524.9)" fill="#e27625" stroke="#e27625" stroke-linecap="round" stroke-linejoin="round" stroke-width="0.25"/>
    <path id="Path_13" data-name="Path 13" d="M9.6,13.6,7.5,16.7l7.4.3-.2-8Z" transform="translate(759.9 524.9)" fill="#e27625" stroke="#e27625" stroke-linecap="round" stroke-linejoin="round" stroke-width="0.25"/>
    <path id="Path_14" data-name="Path 14" d="M24.3,13.6,19.1,9l-.2,8.1,7.4-.3Z" transform="translate(759.9 524.9)" fill="#e27625" stroke="#e27625" stroke-linecap="round" stroke-linejoin="round" stroke-width="0.25"/>
    <path id="Path_15" data-name="Path 15" d="M10,28l4.5-2.2-3.9-3Z" transform="translate(759.9 524.9)" fill="#e27625" stroke="#e27625" stroke-linecap="round" stroke-linejoin="round" stroke-width="0.25"/>
    <path id="Path_16" data-name="Path 16" d="M19.4,25.8,23.9,28l-.6-5.2Z" transform="translate(759.9 524.9)" fill="#e27625" stroke="#e27625" stroke-linecap="round" stroke-linejoin="round" stroke-width="0.25"/>
    <path id="Path_17" data-name="Path 17" d="M23.9,28l-4.5-2.2.4,2.9v1.2Z" transform="translate(759.9 524.9)" fill="#d5bfb2" stroke="#d5bfb2" stroke-linecap="round" stroke-linejoin="round" stroke-width="0.25"/>
    <path id="Path_18" data-name="Path 18" d="M10,28l4.2,2V28.8l.4-2.9Z" transform="translate(759.9 524.9)" fill="#d5bfb2" stroke="#d5bfb2" stroke-linecap="round" stroke-linejoin="round" stroke-width="0.25"/>
    <path id="Path_19" data-name="Path 19" d="M14.2,20.9l-3.7-1.1,2.6-1.2Z" transform="translate(759.9 524.9)" fill="#233447" stroke="#233447" stroke-linecap="round" stroke-linejoin="round" stroke-width="0.25"/>
    <path id="Path_20" data-name="Path 20" d="M19.6,20.9l1.1-2.3,2.6,1.2Z" transform="translate(759.9 524.9)" fill="#233447" stroke="#233447" stroke-linecap="round" stroke-linejoin="round" stroke-width="0.25"/>
    <path id="Path_21" data-name="Path 21" d="M10,28l.6-5.3-4.1.1Z" transform="translate(759.9 524.9)" fill="#cc6228" stroke="#cc6228" stroke-linecap="round" stroke-linejoin="round" stroke-width="0.25"/>
    <path id="Path_22" data-name="Path 22" d="M23.2,22.7l.6,5.3,3.5-5.2Z" transform="translate(759.9 524.9)" fill="#cc6228" stroke="#cc6228" stroke-linecap="round" stroke-linejoin="round" stroke-width="0.25"/>
    <path id="Path_23" data-name="Path 23" d="M26.4,16.8l-7.4.3.7,3.8,1.1-2.3,2.6,1.2Z" transform="translate(759.9 524.9)" fill="#cc6228" stroke="#cc6228" stroke-linecap="round" stroke-linejoin="round" stroke-width="0.25"/>
    <path id="Path_24" data-name="Path 24" d="M10.5,19.8l2.6-1.2,1.1,2.3.7-3.8-7.4-.3Z" transform="translate(759.9 524.9)" fill="#cc6228" stroke="#cc6228" stroke-linecap="round" stroke-linejoin="round" stroke-width="0.25"/>
    <path id="Path_25" data-name="Path 25" d="M7.5,16.8l3.1,6.1-.1-3Z" transform="translate(759.9 524.9)" fill="#e27525" stroke="#e27525" stroke-linecap="round" stroke-linejoin="round" stroke-width="0.25"/>
    <path id="Path_26" data-name="Path 26" d="M23.4,19.8l-.1,3,3.1-6.1Z" transform="translate(759.9 524.9)" fill="#e27525" stroke="#e27525" stroke-linecap="round" stroke-linejoin="round" stroke-width="0.25"/>
    <path id="Path_27" data-name="Path 27" d="M14.9,17.1l-.7,3.8.9,4.5.2-5.9Z" transform="translate(759.9 524.9)" fill="#e27525" stroke="#e27525" stroke-linecap="round" stroke-linejoin="round" stroke-width="0.25"/>
    <path id="Path_28" data-name="Path 28" d="M18.9,17.1l-.4,2.4.2,5.9.9-4.5Z" transform="translate(759.9 524.9)" fill="#e27525" stroke="#e27525" stroke-linecap="round" stroke-linejoin="round" stroke-width="0.25"/>
    <path id="Path_29" data-name="Path 29" d="M19.6,20.9l-.9,4.5.6.4,3.9-3,.1-3Z" transform="translate(759.9 524.9)" fill="#f5841f" stroke="#f5841f" stroke-linecap="round" stroke-linejoin="round" stroke-width="0.25"/>
    <path id="Path_30" data-name="Path 30" d="M10.5,19.8l.1,3,3.9,3,.6-.4-.9-4.5Z" transform="translate(759.9 524.9)" fill="#f5841f" stroke="#f5841f" stroke-linecap="round" stroke-linejoin="round" stroke-width="0.25"/>
    <path id="Path_31" data-name="Path 31" d="M19.7,30V28.8l-.3-.3h-5l-.3.3V30L10,28l1.5,1.2,2.9,2h5.1l3-2L23.9,28Z" transform="translate(759.9 524.9)" fill="#c0ac9d" stroke="#c0ac9d" stroke-linecap="round" stroke-linejoin="round" stroke-width="0.25"/>
    <path id="Path_32" data-name="Path 32" d="M19.4,25.8l-.6-.4H15.1l-.6.4-.4,2.9.3-.3h5l.3.3Z" transform="translate(759.9 524.9)" fill="#161616" stroke="#161616" stroke-linecap="round" stroke-linejoin="round" stroke-width="0.25"/>
    <path id="Path_33" data-name="Path 33" d="M32.6,10.5l1.1-5.4L32,.1,19.4,9.5l4.9,4.1,6.9,2,1.5-1.8-.7-.4,1.1-1-.8-.6,1.1-.8Z" transform="translate(759.9 524.9)" fill="#763e1a" stroke="#763e1a" stroke-linecap="round" stroke-linejoin="round" stroke-width="0.25"/>
    <path id="Path_34" data-name="Path 34" d="M.1,5.1l1.1,5.4L.5,11l1.1.8-.8.6,1.1,1-.7.5,1.5,1.8,6.9-2,4.9-4.1L1.8.1Z" transform="translate(759.9 524.9)" fill="#763e1a" stroke="#763e1a" stroke-linecap="round" stroke-linejoin="round" stroke-width="0.25"/>
    <path id="Path_35" data-name="Path 35" d="M31.2,15.6l-6.9-2,2.1,3.1-3.1,6.1,4.1-.1h6.1Z" transform="translate(759.9 524.9)" fill="#f5841f" stroke="#f5841f" stroke-linecap="round" stroke-linejoin="round" stroke-width="0.25"/>
    <path id="Path_36" data-name="Path 36" d="M9.6,13.6l-6.9,2L.4,22.7H6.5l4.1.1L7.5,16.7Z" transform="translate(759.9 524.9)" fill="#f5841f" stroke="#f5841f" stroke-linecap="round" stroke-linejoin="round" stroke-width="0.25"/>
    <path id="Path_37" data-name="Path 37" d="M18.9,17.1l.4-7.6,2-5.4H12.4l2,5.4.4,7.6.2,2.4v5.9h3.7V19.5Z" transform="translate(759.9 524.9)" fill="#f5841f" stroke="#f5841f" stroke-linecap="round" stroke-linejoin="round" stroke-width="0.25"/>
  </g>
</svg>
