<svg width="23" height="23" viewBox="0 0 23 23" fill="none" xmlns="http://www.w3.org/2000/svg">
<path d="M11.5046 5.88477C8.39917 5.88477 5.89429 8.38965 5.89429 11.4951C5.89429 14.6006 8.39917 17.1055 11.5046 17.1055C14.6101 17.1055 17.115 14.6006 17.115 11.4951C17.115 8.38965 14.6101 5.88477 11.5046 5.88477ZM11.5046 15.1426C9.4978 15.1426 7.85718 13.5068 7.85718 11.4951C7.85718 9.4834 9.49292 7.84766 11.5046 7.84766C13.5164 7.84766 15.1521 9.4834 15.1521 11.4951C15.1521 13.5068 13.5115 15.1426 11.5046 15.1426ZM18.6531 5.65527C18.6531 6.38281 18.0671 6.96387 17.3445 6.96387C16.6169 6.96387 16.0359 6.37793 16.0359 5.65527C16.0359 4.93262 16.6218 4.34668 17.3445 4.34668C18.0671 4.34668 18.6531 4.93262 18.6531 5.65527ZM22.3689 6.9834C22.2859 5.23047 21.8855 3.67773 20.6013 2.39844C19.322 1.11914 17.7693 0.71875 16.0164 0.630859C14.2097 0.52832 8.79468 0.52832 6.98804 0.630859C5.23999 0.713867 3.68726 1.11426 2.40308 2.39355C1.1189 3.67285 0.723389 5.22559 0.635498 6.97852C0.532959 8.78516 0.532959 14.2002 0.635498 16.0068C0.718506 17.7598 1.1189 19.3125 2.40308 20.5918C3.68726 21.8711 5.23511 22.2715 6.98804 22.3594C8.79468 22.4619 14.2097 22.4619 16.0164 22.3594C17.7693 22.2764 19.322 21.876 20.6013 20.5918C21.8806 19.3125 22.281 17.7598 22.3689 16.0068C22.4714 14.2002 22.4714 8.79004 22.3689 6.9834ZM20.0349 17.9453C19.6541 18.9023 18.9167 19.6396 17.9548 20.0254C16.5144 20.5967 13.0964 20.4648 11.5046 20.4648C9.91284 20.4648 6.48999 20.5918 5.05444 20.0254C4.09741 19.6445 3.36011 18.9072 2.97437 17.9453C2.40308 16.5049 2.53491 13.0869 2.53491 11.4951C2.53491 9.90332 2.40796 6.48047 2.97437 5.04492C3.35522 4.08789 4.09253 3.35059 5.05444 2.96484C6.49487 2.39355 9.91284 2.52539 11.5046 2.52539C13.0964 2.52539 16.5193 2.39844 17.9548 2.96484C18.9119 3.3457 19.6492 4.08301 20.0349 5.04492C20.6062 6.48535 20.4744 9.90332 20.4744 11.4951C20.4744 13.0869 20.6062 16.5098 20.0349 17.9453Z" fill="#828282"/>
</svg>
