<svg width="25" height="17" viewBox="0 0 25 17" fill="none" xmlns="http://www.w3.org/2000/svg">
<path d="M23.8564 2.77452C23.5838 1.74804 22.7805 0.939621 21.7607 0.665272C19.9122 0.166748 12.4998 0.166748 12.4998 0.166748C12.4998 0.166748 5.08749 0.166748 3.23892 0.665272C2.21909 0.939665 1.41587 1.74804 1.14326 2.77452C0.647949 4.63506 0.647949 8.51692 0.647949 8.51692C0.647949 8.51692 0.647949 12.3988 1.14326 14.2593C1.41587 15.2858 2.21909 16.0605 3.23892 16.3349C5.08749 16.8334 12.4998 16.8334 12.4998 16.8334C12.4998 16.8334 19.9121 16.8334 21.7607 16.3349C22.7805 16.0605 23.5838 15.2858 23.8564 14.2593C24.3517 12.3988 24.3517 8.51692 24.3517 8.51692C24.3517 8.51692 24.3517 4.63506 23.8564 2.77452ZM10.0756 12.0414V4.99249L16.2708 8.51701L10.0756 12.0414Z" fill="#828282"/>
</svg>
