<svg width="176" height="53" viewBox="0 0 176 53" fill="none" xmlns="http://www.w3.org/2000/svg">
<g clip-path="url(#clip0_315_27929)">
<path d="M44.7756 15.7259C42.5051 17.766 39.4432 18.2542 36.682 19.2902C35.768 19.6335 34.8372 19.9703 34.005 20.435C33.6755 20.6183 33.4903 21.1278 33.4061 21.5158C33.1151 22.878 32.8337 24.2168 31.7273 25.3061C30.9095 26.1119 31.3304 26.8324 32.0592 27.5274C35.2677 30.5843 38.4571 33.6541 41.6464 36.726C45.7786 40.7038 49.9011 44.6903 54.0261 48.6724C54.1608 48.8024 54.2907 48.9389 54.4037 49.0838C54.7284 49.5038 55.3465 49.9472 54.625 50.4354C54.0189 50.8447 53.3911 50.7701 52.8259 50.2179C50.7959 48.2332 48.7298 46.2784 46.6877 44.3023C41.6007 39.3715 36.5209 34.4364 31.4338 29.5057C31.2198 29.2989 30.9961 29.0878 30.7363 28.9365C30.0484 28.5357 29.5914 28.6551 29.565 29.446C29.5241 30.6142 29.4856 31.7845 29.488 32.9549C29.4976 38.8385 29.5217 44.7222 29.5313 50.6059C29.5313 51.1346 29.565 51.6931 29.3894 52.1834C29.2739 52.5074 28.764 52.9892 28.5235 52.9487C28.1266 52.8848 27.6672 52.5117 27.4917 52.1664C27.292 51.772 27.3353 51.2668 27.3353 50.8084C27.3377 43.8972 27.357 36.9839 27.3546 30.0727C27.3546 29.4566 27.2199 28.8384 27.1501 28.2223C27.0299 28.1691 26.9096 28.1179 26.7917 28.0646C25.9691 28.7382 25.0864 29.3628 24.3312 30.0919C20.4203 33.8715 16.5575 37.6917 12.6466 41.4713C9.70744 44.3129 6.72496 47.1205 3.74248 49.9259C3.45386 50.1966 3.05699 50.4332 2.66013 50.5377C2.38594 50.608 1.94819 50.4993 1.72931 50.3266C1.55614 50.1902 1.48879 49.7894 1.5874 49.5827C1.76539 49.2032 2.05402 48.8429 2.37391 48.5402C6.8813 44.2468 11.4079 39.9684 15.9201 35.6771C18.6645 33.0679 21.3992 30.4522 24.1195 27.8237C25.1754 26.8026 25.149 26.5894 24.1195 25.6408C22.6115 24.253 22.2843 24.2764 20.0138 25.2038C18.0295 26.016 15.9803 26.7216 13.9142 27.3547C13.5149 27.4762 12.8607 27.1032 12.4013 26.8474C12.1415 26.7024 12.0429 26.3336 11.6942 26.001C11.3911 27.3441 10.5445 28.2096 9.1855 28.6721C7.48742 29.2499 6.2824 29.0878 5.25537 28.2053C5.36841 28.5442 5.49589 28.8789 5.5921 29.2221C5.70515 29.6272 5.94807 30.0706 5.84705 30.4351C5.73401 30.8444 5.37082 31.3902 4.98358 31.4967C4.60836 31.6012 3.80021 31.3347 3.63665 31.0363C2.88141 29.6464 2.25365 28.201 1.64272 26.7557C1.06066 25.3743 0.517079 23.9759 0.040845 22.5625C-0.0842266 22.1916 0.103381 21.7375 0.14908 21.3218C0.695066 21.3794 1.3998 21.2707 1.75096 21.5329C2.27049 21.9187 2.54949 22.5625 2.90547 23.1104C3.06902 23.3619 3.17004 23.6454 3.54044 23.9695C3.51399 22.2214 3.88439 20.8358 5.99377 20.2623C8.48077 19.5866 8.75737 21.4902 10.0081 22.5476C9.89023 22.0786 9.88302 21.5606 9.63768 21.1491C8.6299 19.4544 9.11816 17.9025 11.1385 17.2096C13.6905 16.3335 16.062 15.0523 18.5298 13.9757C20.9254 12.929 23.3547 11.9463 25.7431 10.8911C29.019 9.44574 32.2732 7.95776 35.5371 6.48898C36.4222 6.09033 37.2689 5.52968 38.2069 5.35488C38.7914 5.24615 39.5394 5.67464 40.1624 5.9539C40.374 6.0477 40.4269 6.42076 40.552 6.66804C40.6819 6.64459 40.8118 6.62328 40.9417 6.59983C40.831 6.07754 40.7853 5.53394 40.5929 5.03724C40.2273 4.09713 40.6025 2.76904 41.5959 2.34056C43.4142 1.55393 45.2927 0.871768 47.1423 0.142703C47.9914 -0.191984 48.4844 0.0616963 48.7803 0.824869C49.4562 2.56013 50.144 4.28899 50.88 6.00506C51.7411 8.01319 52.6046 10.0234 53.5595 11.9975C54.3941 13.7263 54.1968 14.3936 52.1765 15.3358C51.1542 15.8133 50.0815 16.2141 48.9992 16.5765C46.9042 17.28 46.3606 17.1585 44.7756 15.7238V15.7259ZM38.9189 8.98528C38.9405 7.90021 38.5413 7.52288 37.673 7.77869C36.6267 8.0878 35.6502 8.58877 34.6448 9.01086C32.2396 10.0234 29.8199 11.0126 27.4339 12.0593C23.2657 13.8883 19.1167 15.7494 14.9677 17.6125C13.9046 18.0901 12.8487 18.5974 11.8481 19.1666C11.6052 19.3052 11.5859 19.7507 11.4657 20.0555C11.8048 20.1472 12.2065 20.3902 12.4734 20.305C13.3995 20.0086 14.2774 19.5951 15.1769 19.2348C17.0241 18.493 18.881 17.7703 20.7185 17.0135C24.223 15.5746 27.7202 14.125 31.2149 12.6668C33.5889 11.6756 35.9604 10.68 38.3055 9.63973C38.6326 9.49477 38.8179 9.09613 38.9189 8.98314V8.98528ZM42.279 4.21438C42.2766 5.17154 42.6566 5.4977 43.4744 5.25681C44.8622 4.84751 46.2428 4.39345 47.5488 3.81787C47.9529 3.6388 48.0996 3.00567 48.3642 2.57931C47.7966 2.40025 47.1471 1.96963 46.6805 2.09114C45.3288 2.44501 44.0348 2.98861 42.7576 3.53435C42.4762 3.65586 42.3632 4.08434 42.2766 4.21438H42.279ZM5.60894 23.3768C6.32569 23.1786 6.90776 23.1061 7.37437 22.8567C7.62932 22.7203 7.81453 22.2811 7.78326 21.9997C7.76402 21.8249 7.24449 21.5329 7.00878 21.5712C6.43874 21.665 5.87351 21.8739 5.36601 22.1319C5.11587 22.2598 4.80559 22.6691 4.87534 22.8268C4.99079 23.0805 5.39728 23.2319 5.60894 23.3768Z" fill="white"/>
<path d="M91.5112 32.5479C91.5112 38.3228 91.5088 44.0978 91.5112 49.8727C91.5112 52.919 91.5112 52.9617 88.1174 52.9702C78.6288 52.9937 69.1426 52.9851 59.654 52.9873C59.375 52.9873 58.9974 53.0469 58.8387 52.9169C58.4923 52.6291 58.2566 52.2347 57.9752 51.883C58.3095 51.6762 58.6222 51.3415 58.9854 51.2925C59.6901 51.1944 60.4213 51.2541 61.1429 51.2541C64.705 51.2541 68.2695 51.2627 71.8317 51.2477C73.7991 51.2392 74.7468 49.9921 73.8448 48.4423C73.6164 48.0501 72.7529 47.7708 72.166 47.7495C69.8883 47.6621 67.6033 47.6941 65.3207 47.6898C63.5192 47.6877 61.7177 47.6941 59.9162 47.7005C57.9704 47.7069 57.7924 47.5896 57.79 45.8224C57.7756 39.9387 57.7948 34.055 57.7972 28.1735C57.7996 23.5326 57.802 18.8918 57.7972 14.2509C57.7972 12.7374 58.1315 12.4133 59.808 12.4133C69.7367 12.4133 79.6655 12.4133 89.5918 12.4155C91.1143 12.4155 91.3356 12.6031 91.338 13.9461C91.3428 20.1474 91.3404 26.3487 91.3404 32.55C91.3958 32.55 91.4511 32.55 91.5088 32.55L91.5112 32.5479ZM60.1976 31.6419C60.1976 31.6419 60.1928 31.6419 60.1904 31.6419C60.1904 35.7882 60.176 39.9366 60.1976 44.0829C60.2048 45.5453 60.4886 45.7712 62.0785 45.7712C64.0796 45.7712 66.0832 45.8011 68.0819 45.735C70.8768 45.6433 72.9718 43.8441 73.2123 41.3926C73.2844 40.6529 73.3061 39.9067 73.3085 39.1628C73.3157 34.0231 73.3398 28.8834 73.2844 23.7437C73.2724 22.6288 73.193 21.4328 72.7288 20.4245C71.7884 18.3801 69.59 17.9325 67.3844 17.7683C65.8355 17.6532 64.2624 17.779 62.7039 17.747C60.3516 17.7022 60.2024 17.8088 60.2 19.9449C60.1952 23.8439 60.2 27.7429 60.2 31.6419H60.1976ZM89.1541 39.9387C89.1541 39.9387 89.1661 39.9387 89.1709 39.9387C89.1709 36.5769 89.1541 33.213 89.1805 29.8512C89.1878 28.8237 88.572 28.4591 87.545 28.4464C85.5607 28.4208 83.5764 28.3995 81.5921 28.3973C79.0906 28.3973 77.6186 29.5421 77.5681 31.7442C77.4864 35.2829 77.496 38.8259 77.5681 42.3647C77.6042 44.2257 79.3528 45.6753 81.4381 45.7414C82.3569 45.7712 83.2781 45.7265 84.1969 45.7286C85.7964 45.7286 85.9936 45.9055 86.0369 47.3082C86.0995 49.3576 84.969 50.3233 82.6456 50.2053C81.6979 50.1584 81.0052 49.9644 80.7069 48.9945C80.4015 47.9989 78.8309 47.7346 78.2921 48.6086C77.9313 49.197 77.9169 50.1243 78.155 50.783C78.4292 51.5355 78.5807 52.6227 79.9517 52.6249C82.3112 52.6291 84.6708 52.6376 87.0279 52.6099C87.3526 52.6057 87.812 52.4863 87.9755 52.2774C88.5961 51.4758 89.207 50.6956 89.1805 49.5999C89.106 46.3809 89.1541 43.1577 89.1541 39.9366V39.9387Z" fill="black"/>
<path d="M133.747 51.9043C124.419 51.9043 115.094 51.9128 105.767 51.9C101.926 51.8936 98.0847 51.8745 94.246 51.7892C92.3242 51.7465 91.6844 50.8917 92.2881 49.2588C92.406 48.9411 93.0193 48.5894 93.4282 48.566C95.4221 48.4487 97.4233 48.3997 99.422 48.3975C111.672 48.3911 123.919 48.4103 136.169 48.4125C148.137 48.4125 160.108 48.4039 172.077 48.4018C172.637 48.4018 173.197 48.4636 173.755 48.4615C174.951 48.4572 175.475 48.9028 175.413 50.0198C175.331 51.4801 175.045 51.8638 173.366 51.8787C169.842 51.9128 166.321 51.8872 162.797 51.8872C153.114 51.8872 143.43 51.8872 133.747 51.8872C133.747 51.8936 133.747 51.9 133.747 51.9064V51.9043Z" fill="white"/>
<path d="M101.739 36.4553C102.085 35.4662 102.561 34.4984 102.754 33.4858C103.634 28.8833 104.44 24.2701 105.26 19.6613C105.404 18.8533 105.943 18.5421 106.818 18.4781C109.594 18.2756 109.926 18.4973 109.469 20.8892C108.923 23.7457 108.197 26.5767 107.562 29.4205C107.189 31.0875 106.814 32.7525 106.479 34.4259C105.95 37.0757 105.491 39.734 104.928 42.3774C104.699 43.4497 104.303 44.4964 103.935 45.5409C103.848 45.7882 103.631 46.0675 103.386 46.1954C101.505 47.176 99.2299 46.302 98.8475 44.426C98.3641 42.0576 98.0177 39.6679 97.5078 37.3059C97.0243 35.0505 96.3629 32.8249 95.865 30.5717C95.3672 28.3162 94.9847 26.0395 94.5301 23.7756C94.2848 22.5583 93.9793 21.3518 93.734 20.1345C93.4766 18.8619 93.7845 18.5293 95.2228 18.4419C97.5463 18.2991 98.049 18.7105 98.4362 20.9211C99.3021 25.8498 100.192 30.7742 101.077 35.6986C101.118 35.9309 101.217 36.1548 101.286 36.3828C101.438 36.4063 101.589 36.4297 101.741 36.4532L101.739 36.4553Z" fill="white"/>
<path d="M160.481 37.3166C160.481 35.1572 160.448 32.9998 160.493 30.8403C160.524 29.3929 161.27 28.6297 162.894 28.5785C165.688 28.4933 168.491 28.4869 171.283 28.57C172.897 28.6169 173.455 29.1989 173.52 30.6741C173.604 32.5116 173.616 34.3535 173.597 36.1953C173.582 37.4339 172.755 38.1203 171.307 38.1672C169.71 38.2184 168.108 38.2631 166.511 38.2482C165.299 38.2376 164.873 38.7662 164.933 39.7575C164.972 40.3928 165.02 41.0323 164.986 41.6676C164.943 42.5246 165.407 42.9125 166.323 42.9445C166.843 42.9637 167.363 42.9594 167.882 42.9637C168.661 42.9722 169.017 42.6418 169.099 41.9426C169.287 40.3203 169.599 40.1689 172.149 40.2883C173.258 40.3395 173.628 40.8063 173.631 42.1664C173.631 42.661 173.597 43.1577 173.594 43.6523C173.582 45.4046 172.938 46.1272 170.667 46.3276C168.289 46.5344 165.871 46.447 163.473 46.4065C161.703 46.3767 160.539 45.2617 160.522 43.6864C160.498 41.5631 160.515 39.4377 160.515 37.3145H160.484L160.481 37.3166ZM169.094 33.4368C169.089 33.3281 169.147 32.8847 169.02 32.4882C168.928 32.2047 168.613 31.7954 168.358 31.7698C167.495 31.6866 166.605 31.7037 165.739 31.789C165.486 31.8124 165.116 32.1663 165.08 32.4029C164.965 33.1704 164.912 33.957 164.979 34.7244C165.008 35.0484 165.318 35.4876 165.64 35.6347C167.531 36.5023 169.135 35.607 169.094 33.4368Z" fill="white"/>
<path d="M112.533 37.2824C112.533 35.123 112.507 32.9613 112.543 30.8019C112.569 29.3224 113.178 28.6232 114.801 28.5742C117.673 28.4868 120.557 28.4996 123.426 28.6168C125.004 28.6808 125.512 29.2713 125.553 30.6953C125.606 32.5371 125.598 34.379 125.557 36.2208C125.529 37.4807 124.809 38.116 123.386 38.1629C121.947 38.2119 120.504 38.1842 119.063 38.1927C117.166 38.2034 116.952 38.3974 116.952 40.1092C116.952 40.3564 116.956 40.6059 116.966 40.8531C117.041 42.7696 117.495 43.1064 119.665 42.9998C120.639 42.9529 121.074 42.6183 121.153 41.7186C121.264 40.4737 121.844 40.2072 123.785 40.284C125.163 40.3394 125.512 40.6442 125.574 41.8998C125.603 42.4648 125.601 43.0339 125.586 43.601C125.545 45.4492 124.749 46.2721 122.625 46.3595C120.189 46.4597 117.743 46.4597 115.306 46.3979C113.676 46.3574 112.572 45.3043 112.543 43.8696C112.5 41.6739 112.531 39.4782 112.533 37.2824ZM116.778 33.5518C116.843 33.5732 116.908 33.5945 116.976 33.6158C116.976 33.8631 116.968 34.1104 116.976 34.3577C117.014 35.4598 117.466 35.8883 118.602 35.9053C120.408 35.933 121.031 35.577 121.098 34.4216C121.132 33.8226 121.127 33.215 121.048 32.6224C121.009 32.341 120.778 31.8656 120.595 31.8486C119.58 31.7654 118.493 31.6226 117.555 31.8678C117.146 31.9765 117.029 32.9613 116.781 33.5476L116.778 33.5518Z" fill="white"/>
<path d="M150.675 28.3823C152.032 28.4356 153.391 28.4569 154.745 28.5507C156.344 28.6616 157.063 29.3608 157.179 30.8125C157.205 31.1302 157.234 31.4478 157.249 31.7676C157.328 33.6712 156.849 34.0763 154.728 34.1317C153.624 34.1615 153.039 33.7565 152.96 32.8292C152.888 31.9616 152.371 31.6652 151.469 31.7036C151.11 31.7185 150.75 31.6951 150.389 31.7036C149.761 31.7185 148.996 31.5864 148.866 32.3773C148.746 33.1021 148.638 33.8567 149.557 34.3491C151.324 35.2935 153.037 36.321 154.826 37.2313C156.395 38.0307 157.484 38.9793 157.265 40.7572C157.14 41.772 157.28 42.8101 157.224 43.8355C157.143 45.3533 156.036 46.3382 154.312 46.3787C152.072 46.432 149.831 46.4682 147.594 46.3958C145.768 46.3382 144.289 45.6518 144.503 43.5498C144.542 43.164 144.494 42.7718 144.494 42.3816C144.496 40.4396 145.804 39.6295 147.842 40.4268C148.296 40.6037 148.703 41.271 148.765 41.7485C148.878 42.6076 149.333 42.9359 150.22 42.9657C150.54 42.9764 150.86 43.0084 151.178 42.9913C151.87 42.9508 152.746 43.1192 152.929 42.2516C153.095 41.4671 153.02 40.6698 152.135 40.1795C150.384 39.2096 148.645 38.2162 146.848 37.3166C145.35 36.564 144.316 35.6474 144.448 33.9846C144.537 32.8569 144.47 31.7185 144.544 30.5887C144.643 29.1093 145.295 28.5721 146.952 28.5166C147.592 28.4953 148.231 28.4996 148.871 28.4953C149.47 28.4932 150.069 28.4953 150.67 28.4953C150.67 28.4591 150.67 28.4207 150.673 28.3845L150.675 28.3823Z" fill="white"/>
<path d="M128.92 37.1822C128.92 34.8096 128.903 32.4369 128.927 30.0643C128.939 28.8939 129.408 28.4803 130.733 28.4249C131.371 28.3972 132.073 28.3141 132.638 28.5038C134.425 29.105 136.186 28.7873 137.966 28.5912C138.36 28.5464 138.764 28.5123 139.161 28.5294C140.821 28.5933 141.521 29.0964 141.655 30.5588C141.78 31.8933 141.742 33.2427 141.703 34.5815C141.679 35.4491 141.133 35.9565 140.099 35.9543C139.58 35.9543 139.058 35.965 138.543 35.9202C137.708 35.8456 137.249 35.4065 137.191 34.6667C137.155 34.2084 137.162 33.7458 137.146 33.2854C137.093 31.8272 135.892 31.1173 134.445 31.8038C134.06 31.9871 133.8 32.6735 133.79 33.1361C133.721 35.8989 133.742 38.6617 133.73 41.4266C133.725 42.5948 133.73 43.7651 133.711 44.9333C133.694 45.9331 133.086 46.3851 131.972 46.4298C129.427 46.5322 128.941 46.1634 128.91 43.876C128.879 41.6461 128.903 39.4163 128.903 37.1844C128.91 37.1844 128.915 37.1844 128.922 37.1844L128.92 37.1822Z" fill="white"/>
<path d="M38.919 8.98546C38.818 9.09845 38.6352 9.49709 38.3057 9.64205C35.9582 10.6802 33.5867 11.6779 31.2151 12.6692C27.7227 14.1273 24.2231 15.5769 20.7187 17.0158C18.8787 17.7705 17.0219 18.4953 15.1771 19.2371C14.2775 19.5995 13.3996 20.0131 12.4736 20.3073C12.2066 20.3926 11.8074 20.1495 11.4658 20.0579C11.5885 19.753 11.6053 19.3075 11.8483 19.1689C12.8512 18.5976 13.9047 18.0924 14.9678 17.6149C19.1168 15.7517 23.2658 13.8907 27.4341 12.0616C29.8201 11.0149 32.2397 10.0258 34.645 9.01318C35.6479 8.59109 36.6245 8.09012 37.6731 7.78102C38.5414 7.5252 38.9407 7.90253 38.919 8.9876V8.98546Z" fill="black"/>
<path d="M42.2788 4.21654C42.3654 4.08651 42.4784 3.65802 42.7599 3.53651C44.0346 2.99078 45.331 2.44718 46.6828 2.0933C47.1494 1.97179 47.7988 2.40241 48.3664 2.58148C48.1019 3.00783 47.9551 3.64097 47.5511 3.82003C46.245 4.39561 44.8644 4.85181 43.4766 5.25898C42.6588 5.49987 42.2788 5.17371 42.2812 4.21654H42.2788Z" fill="black"/>
<path d="M5.6088 23.3769C5.39714 23.232 4.99066 23.0806 4.87521 22.8269C4.80546 22.6713 5.11573 22.2599 5.36587 22.132C5.87097 21.874 6.4386 21.6651 7.00864 21.5713C7.24676 21.5329 7.76388 21.825 7.78312 21.9998C7.81439 22.2812 7.62919 22.7203 7.37423 22.8568C6.91003 23.104 6.32796 23.1787 5.6088 23.3769Z" fill="black"/>
<path d="M60.1979 31.6418C60.1979 27.7428 60.1931 23.8438 60.1979 19.9448C60.2003 17.8088 60.3519 17.7001 62.7018 17.747C64.2628 17.7768 65.8334 17.651 67.3823 17.7683C69.5879 17.9324 71.7863 18.3822 72.7267 20.4245C73.1909 21.4328 73.2703 22.6309 73.2823 23.7436C73.3377 28.8833 73.3136 34.023 73.3064 39.1627C73.3064 39.9067 73.2823 40.6528 73.2102 41.3925C72.9721 43.8441 70.8771 45.6433 68.0798 45.7349C66.0811 45.801 64.0775 45.7712 62.0764 45.7712C60.4866 45.7712 60.2051 45.5452 60.1955 44.0828C60.1739 39.9365 60.1883 35.7881 60.1883 31.6418C60.1883 31.6418 60.1931 31.6418 60.1955 31.6418H60.1979ZM70.0449 31.9296C70.0449 31.9296 70.0642 31.9296 70.0738 31.9296C70.0738 29.0624 70.0834 26.1952 70.069 23.3279C70.0642 22.3644 70.093 21.2303 69.0155 20.7677C67.9259 20.2987 66.6367 20.0493 65.4173 19.996C63.4305 19.9086 63.344 20.0813 63.344 21.8719C63.3415 28.2076 63.3343 34.5453 63.3416 40.8809C63.3416 43.7268 63.3656 43.7353 66.5381 43.6309C68.8255 43.5563 70.0112 42.5416 70.0377 40.5292C70.0738 37.6619 70.0473 34.7947 70.0473 31.9275L70.0449 31.9296Z" fill="white"/>
<path d="M89.1517 39.9387C89.1517 43.1598 89.1036 46.383 89.1782 49.602C89.2046 50.6977 88.5937 51.4779 87.9732 52.2795C87.812 52.4884 87.3526 52.6078 87.0255 52.612C84.666 52.6397 82.3064 52.6312 79.9493 52.627C78.5783 52.6248 78.4268 51.5376 78.1526 50.7851C77.9121 50.1264 77.9265 49.1991 78.2897 48.6107C78.8285 47.7367 80.3991 48.001 80.7046 48.9966C81.0004 49.9665 81.6955 50.1605 82.6432 50.2074C84.9666 50.3211 86.0971 49.3554 86.0345 47.3103C85.9912 45.9076 85.794 45.7328 84.1945 45.7307C83.2757 45.7307 82.3545 45.7733 81.4357 45.7435C79.3504 45.6753 77.6018 44.2278 77.5657 42.3668C77.496 38.828 77.4864 35.285 77.5657 31.7463C77.6163 29.5442 79.0883 28.3973 81.5897 28.3994C83.574 28.3994 85.5583 28.4207 87.5426 28.4484C88.5696 28.4612 89.1878 28.8258 89.1782 29.8533C89.1517 33.2151 89.1685 36.579 89.1685 39.9408C89.1637 39.9408 89.1565 39.9408 89.1517 39.9408V39.9387ZM86.0201 37.3464H86.0297C86.0297 36.0354 86.0321 34.7222 86.0297 33.4112C86.0249 31.03 85.7146 30.7486 83.0064 30.657C82.8861 30.6527 82.7658 30.6442 82.6456 30.6442C81.4454 30.6527 80.743 31.0833 80.7238 32.1257C80.6565 35.3852 80.6565 38.6468 80.731 41.9063C80.7527 42.9317 81.6258 43.5478 82.7947 43.6373C83.3118 43.6778 83.8386 43.6309 84.3557 43.6757C85.5679 43.7801 86.0297 43.2386 86.0249 42.241C86.0177 40.6102 86.0249 38.9794 86.0249 37.3486L86.0201 37.3464Z" fill="white"/>
<path d="M70.0447 31.9297C70.0447 34.7969 70.0712 37.6641 70.0351 40.5313C70.0087 42.5437 68.8229 43.5585 66.5355 43.6331C63.363 43.7375 63.3414 43.7269 63.339 40.8831C63.3342 34.5475 63.339 28.2097 63.3414 21.8741C63.3414 20.0834 63.428 19.9108 65.4147 19.9982C66.6317 20.0515 67.9233 20.3009 69.0129 20.7699C70.088 21.2325 70.0592 22.3666 70.0664 23.3301C70.0832 26.1973 70.0712 29.0646 70.0712 31.9318C70.0616 31.9318 70.0519 31.9318 70.0423 31.9318L70.0447 31.9297Z" fill="black"/>
<path d="M86.0203 37.3465C86.0203 38.9773 86.0155 40.6081 86.0203 42.2389C86.0252 43.2366 85.5633 43.778 84.3511 43.6736C83.834 43.6288 83.3096 43.6736 82.7901 43.6352C81.6212 43.5457 80.7481 42.9296 80.7264 41.9042C80.6543 38.6447 80.6543 35.3831 80.7192 32.1237C80.7409 31.0791 81.4408 30.6506 82.641 30.6421C82.7613 30.6421 82.8815 30.6506 83.0018 30.6549C85.7125 30.7487 86.0203 31.0279 86.0251 33.4091C86.0276 34.7202 86.0251 36.0333 86.0251 37.3444H86.0155L86.0203 37.3465Z" fill="black"/>
</g>
<defs>
<clipPath id="clip0_315_27929">
<rect width="175.42" height="53" fill="white"/>
</clipPath>
</defs>
</svg>
