<svg width="25" height="16" viewBox="0 0 25 16" fill="none" xmlns="http://www.w3.org/2000/svg">
<path d="M0.0282707 2.20055C0.0282707 1.73463 0.449657 1.34619 0.955496 1.34619H14.1614C14.6671 1.34619 15.0886 1.73446 15.0886 2.20055C15.0886 2.66647 14.6672 3.05491 14.1614 3.05491H0.955496C0.42159 3.05491 0.0282707 2.66646 0.0282707 2.20055Z" fill="#4F4F4F"/>
<path d="M0.92741 5.59204H12.8689C13.3746 5.59204 13.7961 5.98031 13.7961 6.4464C13.7961 6.91232 13.3748 7.30076 12.8689 7.30076H0.92741C0.421753 7.30076 0.000185013 6.91249 0.000185013 6.4464C0.000185013 5.98029 0.421572 5.59204 0.92741 5.59204Z" fill="#4F4F4F"/>
<path d="M0.9273 9.78613H11.0987C11.6043 9.78613 12.0259 10.1744 12.0259 10.6405C12.0259 11.1064 11.6045 11.4949 11.0987 11.4949H0.9273C0.421642 11.4949 7.43866e-05 11.1066 7.43866e-05 10.6405C7.43866e-05 10.1746 0.421462 9.78613 0.9273 9.78613Z" fill="#4F4F4F"/>
<path d="M0.927211 14.0063H9.30032C9.80597 14.0063 10.2275 14.3946 10.2275 14.8607C10.2275 15.3266 9.80615 15.7151 9.30032 15.7151H0.927211C0.421554 15.7151 -1.43051e-05 15.3268 -1.43051e-05 14.8607C-1.43051e-05 14.3946 0.421372 14.0063 0.927211 14.0063Z" fill="#4F4F4F"/>
<path d="M19.6684 0.232965C20.0055 -0.0776551 20.6236 -0.0776551 20.961 0.232965L24.726 3.70232C25.0913 4.03894 25.0913 4.55668 24.726 4.89334C24.3607 5.22999 23.7988 5.22996 23.4334 4.89334L21.2418 2.87394V15.1456C21.2418 15.6116 20.8204 16 20.3146 16C19.8089 16 19.3873 15.6117 19.3873 15.1456V2.84805L17.1957 4.86745C17.0272 5.02276 16.7743 5.12642 16.5495 5.12642C16.3247 5.12642 16.0719 5.04876 15.9033 4.86745C15.538 4.53082 15.538 4.01309 15.9033 3.67643L19.6684 0.232965Z" fill="#4F4F4F"/>
</svg>
